HIERARCHY
ROOT Hips
{
	OFFSET 0.00000 0.00000 0.00000
	CHANNELS 6 Xposition Yposition Zposition Zrotation Yrotation Xrotation 
	JOINT LHipJoint
	{
		OFFSET 0 0 0
		CHANNELS 3 Zrotation Yrotation Xrotation
		JOINT LeftUpLeg
		{
			OFFSET 1.70593 -1.62653 0.87602
			CHANNELS 3 Zrotation Yrotation Xrotation
			JOINT LeftLeg
			{
				OFFSET 2.32330 -6.38322 0.00000
				CHANNELS 3 Zrotation Yrotation Xrotation
				JOINT LeftFoot
				{
					OFFSET 2.45016 -6.73177 0.00000
					CHANNELS 3 Zrotation Yrotation Xrotation
					JOINT LeftToeBase
					{
						OFFSET 0.13029 -0.35798 1.96980
						CHANNELS 3 Zrotation Yrotation Xrotation
						End Site
						{
							OFFSET 0.00000 -0.00000 1.01270
						}
					}
				}
			}
		}
	}
	JOINT RHipJoint
	{
		OFFSET 0 0 0
		CHANNELS 3 Zrotation Yrotation Xrotation
		JOINT RightUpLeg
		{
			OFFSET -1.80599 -1.62652 0.87602
			CHANNELS 3 Zrotation Yrotation Xrotation
			JOINT RightLeg
			{
				OFFSET -2.45375 -6.74162 0.00000
				CHANNELS 3 Zrotation Yrotation Xrotation
				JOINT RightFoot
				{
					OFFSET -2.45828 -6.75406 0.00000
					CHANNELS 3 Zrotation Yrotation Xrotation
					JOINT RightToeBase
					{
						OFFSET -0.13801 -0.37917 1.88456
						CHANNELS 3 Zrotation Yrotation Xrotation
						End Site
						{
							OFFSET -0.00000 -0.00000 0.97281
						}
					}
				}
			}
		}
	}
	JOINT LowerBack
	{
		OFFSET 0 0 0
		CHANNELS 3 Zrotation Yrotation Xrotation
		JOINT Spine
		{
			OFFSET 0.01003 2.00576 -0.14267
			CHANNELS 3 Zrotation Yrotation Xrotation
			JOINT Spine1
			{
				OFFSET 0.00908 2.01191 0.01660
				CHANNELS 3 Zrotation Yrotation Xrotation
				JOINT Neck
				{
					OFFSET 0 0 0
					CHANNELS 3 Zrotation Yrotation Xrotation
					JOINT Neck1
					{
						OFFSET -0.05849 1.60301 0.18934
						CHANNELS 3 Zrotation Yrotation Xrotation
						JOINT Head
						{
							OFFSET 0.01775 1.59435 -0.07960
							CHANNELS 3 Zrotation Yrotation Xrotation
							End Site
							{
								OFFSET 0.01210 1.70732 -0.05248
							}
						}
					}
				}
				JOINT LeftShoulder
				{
					OFFSET 0 0 0
					CHANNELS 3 Zrotation Yrotation Xrotation
					JOINT LeftArm
					{
						OFFSET 3.15315 1.26460 0.30667
						CHANNELS 3 Zrotation Yrotation Xrotation
						JOINT LeftForeArm
						{
							OFFSET 4.97694 -0.00000 -0.00000
							CHANNELS 3 Zrotation Yrotation Xrotation
							JOINT LeftHand
							{
								OFFSET 3.14391 -0.00000 -0.00000
								CHANNELS 3 Zrotation Yrotation Xrotation
								JOINT LeftFingerBase
								{
									OFFSET 0 0 0
									CHANNELS 3 Zrotation Yrotation Xrotation
									JOINT LeftHandIndex1
									{
										OFFSET 0.59358 -0.00000 -0.00000
										CHANNELS 3 Zrotation Yrotation Xrotation
										End Site
										{
											OFFSET 0.47856 -0.00000 -0.00000
										}
									}
								}
								JOINT LThumb
								{
									OFFSET 0 0 0
									CHANNELS 3 Zrotation Yrotation Xrotation
									End Site
									{
										OFFSET 0.48587 -0.00000 0.48587
									}
								}
							}
						}
					}
				}
				JOINT RightShoulder
				{
					OFFSET 0 0 0
					CHANNELS 3 Zrotation Yrotation Xrotation
					JOINT RightArm
					{
						OFFSET -3.25568 1.35581 0.18982
						CHANNELS 3 Zrotation Yrotation Xrotation
						JOINT RightForeArm
						{
							OFFSET -4.90473 -0.00000 0.00000
							CHANNELS 3 Zrotation Yrotation Xrotation
							JOINT RightHand
							{
								OFFSET -3.21621 0.00006 -0.00004
								CHANNELS 3 Zrotation Yrotation Xrotation
								JOINT RightFingerBase
								{
									OFFSET 0 0 0
									CHANNELS 3 Zrotation Yrotation Xrotation
									JOINT RightHandIndex1
									{
										OFFSET -0.62353 -0.00000 -0.00000
										CHANNELS 3 Zrotation Yrotation Xrotation
										End Site
										{
											OFFSET -0.50270 -0.00000 -0.00000
										}
									}
								}
								JOINT RThumb
								{
									OFFSET 0 0 0
									CHANNELS 3 Zrotation Yrotation Xrotation
									End Site
									{
										OFFSET -0.51038 -0.00000 0.51038
									}
								}
							}
						}
					}
				}
			}
		}
	}
}
MOTION
Frames: 13
Frame Time: .0083333
9.6557 16.0647 4.6376 0.1443 -13.8611 7.5182 0.0000 0.0000 0.0000 -18.7629 -7.4682 -37.5363 3.5632 11.5553 34.1764 0.1163 -2.6098 -6.0676 0.0013 -0.2363 -0.6493 0.0000 0.0000 0.0000 18.7147 6.1799 2.7618 -6.8724 -15.2235 48.3902 -1.5277 -14.2087 22.8432 -0.0179 -0.8649 2.3772 -2.1388 4.4994 -0.9312 -0.9882 5.9664 -3.1749 0.0744 3.0199 -2.8561 -1.5685 -1.5720 -10.5743 5.0257 -2.5373 11.2462 1.6317 -0.9665 5.2057 0.0000 -0.0000 0.0000 -88.4686 21.5695 -10.4646 6.4555 -11.0197 -0.6234 -0.0000 -0.0000 7.3642 18.4108 -3.2247 -1.0727 -7.1250 0.0000 -0.0000 -6.2408 26.5709 2.8057 0.0000 -0.0000 0.0000 85.4199 -7.2235 37.6801 -58.4858 55.8928 -33.0843 0.0000 -0.0000 -12.4278 -29.8660 -35.4731 18.4302 7.1250 -0.0000 -0.0000 5.1120 -69.3281 -2.9810
9.6574 16.0949 4.8730 0.4357 -14.0117 7.2757 0.0000 0.0000 0.0000 -19.5187 -6.8930 -36.7296 3.6226 11.6405 34.4717 0.1173 -3.3259 -6.1664 0.0008 0.1815 0.4987 0.0000 0.0000 0.0000 18.4591 6.7186 1.0786 -7.7378 -15.9230 51.6127 -1.5434 -14.2087 22.9469 -0.0029 0.3498 -0.9612 -2.4448 4.4805 -0.4780 -1.1187 5.9218 -3.1430 0.0713 3.0038 -3.0947 -1.6106 -1.5596 -10.5135 4.9775 -2.5020 11.1179 1.6263 -0.9571 5.1542 0.0000 0.0000 0.0000 -88.4737 20.9661 -10.1107 6.3971 -10.9228 -0.6123 -0.0000 -0.0000 8.5608 19.2598 -4.0020 -1.3969 -7.1250 0.0000 -0.0000 -5.5690 25.7369 2.6099 0.0000 0.0000 0.0000 85.9195 -8.0227 36.8261 -56.2636 55.2292 -31.2514 0.0000 -0.0000 -12.4146 -30.4913 -35.9338 19.0632 7.1250 -0.0000 -0.0000 4.6099 -69.9973 -2.7570
9.6624 16.1189 5.1158 1.0012 -13.9397 6.9692 0.0000 0.0000 0.0000 -20.6067 -6.5371 -35.6503 3.6538 11.6849 34.6262 0.1397 -4.0357 -6.7974 0.0111 -0.6801 -1.8689 0.0000 0.0000 0.0000 17.8448 7.0209 -0.4849 -8.5956 -16.5403 54.6809 -1.3933 -12.8110 21.6441 -0.1278 2.3044 -6.3477 -2.8825 4.3293 -0.2489 -1.3375 5.7020 -3.0261 0.0806 2.9009 -3.1191 -1.3215 -1.5081 -10.9029 4.5609 -2.4349 11.4164 1.4525 -0.9309 5.3016 0.0000 -0.0000 0.0000 -88.4796 20.3402 -9.2503 6.4436 -11.0000 -0.6211 -0.0000 -0.0000 9.4646 19.8373 -4.7482 -1.7105 -7.1250 0.0000 -0.0000 -5.1151 24.9330 2.4915 0.0000 -0.0000 0.0000 86.4255 -8.3817 36.3417 -53.2550 54.2268 -28.7948 0.0000 -0.0000 -12.9869 -30.9285 -36.1607 19.4705 7.1250 -0.0000 -0.0000 4.1667 -70.3701 -2.5262
9.6678 16.1428 5.3586 1.7274 -13.7381 6.6403 0.0000 0.0000 0.0000 -21.8551 -6.2597 -34.4508 3.6482 11.6770 34.5986 0.1672 -4.7138 -7.4994 0.0391 -1.2759 -3.5083 0.0000 0.0000 0.0000 17.1180 7.4094 -2.0139 -9.4598 -17.0947 57.6672 -1.0828 -11.5065 19.0871 -0.2565 3.2586 -8.9995 -3.4233 4.1570 -0.0357 -1.6204 5.4502 -2.8804 0.0862 2.7830 -3.1062 -1.0172 -1.4577 -11.4593 4.2249 -2.3856 11.7674 1.2990 -0.9053 5.4959 0.0000 -0.0000 0.0000 -88.4465 19.7277 -7.8982 6.9961 -11.9128 -0.7308 -0.0000 -0.0000 9.3322 18.4881 -4.3181 -1.4421 -7.1250 0.0000 -0.0000 -6.1399 25.4239 2.9253 0.0000 -0.0000 0.0000 87.1279 -8.5107 35.6913 -49.9969 52.9943 -26.1717 0.0000 -0.0000 -13.1654 -30.8289 -36.9940 19.7540 7.1250 -0.0000 -0.0000 5.0942 -71.1839 -3.1815
9.6714 16.1739 5.5896 2.0947 -13.6152 6.4687 0.0000 0.0000 0.0000 -22.6726 -5.8382 -33.3561 3.6098 11.6222 34.4082 0.1840 -5.3484 -7.9614 0.0324 -1.1612 -3.1924 0.0000 0.0000 0.0000 16.8447 7.9358 -4.0822 -10.3412 -17.5973 60.6227 -0.9480 -8.7373 17.5211 -0.8132 5.7544 -16.0735 -3.7186 4.0518 0.2400 -1.7699 5.2884 -2.8229 0.0816 2.7074 -3.2107 -1.2044 -1.3879 -11.2082 4.4669 -2.2829 11.5196 1.4146 -0.8528 5.3782 0.0000 -0.0000 0.0000 -88.1013 18.2571 -8.9684 6.5995 -11.2582 -0.6512 -0.0000 -0.0000 11.9816 17.7888 -4.7896 -1.5346 -7.1250 0.0000 -0.0000 -6.6475 24.9496 3.2439 0.0000 -0.0000 0.0000 87.6607 -9.0716 35.0559 -47.6048 51.9826 -24.2740 0.0000 -0.0000 -13.4275 -31.1696 -38.0523 20.4478 7.1250 -0.0000 -0.0000 5.6726 -72.3636 -3.6907
9.6757 16.1991 5.8127 2.0978 -13.4794 6.4379 0.0000 0.0000 0.0000 -23.0846 -5.5828 -32.2040 3.5367 11.5170 34.0441 0.2180 -5.6595 -8.6279 0.0353 -1.2133 -3.3358 0.0000 0.0000 0.0000 16.9598 8.3351 -6.4973 -11.1759 -18.0201 63.3514 -0.8355 -5.5274 16.2972 -1.8531 8.5531 -24.4070 -3.7457 3.9117 0.4252 -1.7252 5.0940 -2.7787 0.1376 2.6117 -3.2694 -1.6665 -1.2677 -10.6287 4.8514 -2.0793 11.0709 1.6277 -0.7604 5.1432 0.0000 -0.0000 0.0000 -88.1711 17.0845 -9.1044 6.4306 -10.9784 -0.6186 -0.0000 -0.0000 14.3148 18.4265 -5.3055 -1.7645 -7.1250 0.0000 -0.0000 -6.1550 24.3916 3.0808 0.0000 -0.0000 0.0000 87.8017 -9.7757 34.7306 -45.4885 51.0056 -22.6178 0.0000 -0.0000 -14.2120 -31.5100 -37.7220 20.5599 7.1250 -0.0000 -0.0000 4.7848 -72.1470 -3.0896
9.6802 16.2134 6.0419 2.1753 -13.4591 6.3990 0.0000 0.0000 0.0000 -23.6232 -5.3300 -30.9329 3.4285 11.3584 33.4983 0.2597 -5.8387 -9.3434 0.0403 -1.2964 -3.5648 0.0000 0.0000 0.0000 16.8785 8.9645 -8.4556 -11.8638 -18.3325 65.5566 -0.6330 -4.6222 14.1736 -1.5651 7.8944 -22.3938 -3.8222 3.8125 0.5334 -1.7183 4.9556 -2.7382 0.1861 2.5444 -3.2912 -1.8564 -1.1200 -10.3062 4.9565 -1.8576 10.8877 1.7087 -0.6597 5.0270 0.0000 -0.0000 0.0000 -88.1517 16.0129 -7.4621 6.3862 -10.9048 -0.6102 -0.0000 -0.0000 15.1524 18.9614 -5.8920 -2.0199 -7.1250 0.0000 -0.0000 -5.7436 23.7575 2.9573 0.0000 -0.0000 0.0000 88.1122 -10.2069 34.1363 -42.8941 49.6941 -20.6200 0.0000 -0.0000 -14.9823 -29.7647 -37.7212 19.2846 7.1250 -0.0000 -0.0000 7.4510 -71.5589 -4.7194
9.6845 16.2522 6.2854 2.4821 -13.6507 6.2111 0.0000 0.0000 0.0000 -24.3599 -4.9187 -29.5137 3.3093 11.1797 32.8882 0.2802 -6.0324 -9.7000 0.0199 -0.9112 -2.5044 0.0000 0.0000 0.0000 16.2575 9.6379 -9.8822 -12.3628 -18.5398 67.1343 -0.4231 -4.7000 11.5789 -0.3603 3.8561 -10.6723 -4.0425 3.8165 0.5537 -1.8057 4.9566 -2.6048 0.2225 2.5463 -3.1764 -1.8604 -1.0363 -10.3941 4.8114 -1.7302 11.0297 1.6738 -0.6043 5.0798 0.0000 -0.0000 0.0000 -87.8856 14.5340 -5.8358 6.1140 -10.4521 -0.5597 -0.0000 -0.0000 16.1856 19.7546 -6.9078 -2.4732 -7.1250 0.0000 -0.0000 -5.1447 22.6534 2.7772 0.0000 -0.0000 0.0000 88.6576 -10.3804 33.0224 -40.1294 48.1464 -18.5356 0.0000 -0.0000 -15.1120 -27.1704 -39.5303 18.0919 7.1250 -0.0000 -0.0000 13.5509 -72.4346 -8.8757
9.6898 16.3194 6.5382 2.9210 -13.6151 5.9095 0.0000 0.0000 0.0000 -25.1520 -4.7434 -27.9410 3.2009 11.0133 32.3248 0.3030 -6.2336 -10.0802 0.0006 -0.1623 -0.4460 0.0000 0.0000 0.0000 15.5250 9.8780 -11.2996 -12.7340 -18.6840 68.2973 -0.2877 -3.4193 9.5326 -0.0976 2.0148 -5.5465 -4.3573 3.7667 0.4934 -1.8693 4.8936 -2.3636 0.3490 2.5152 -2.9123 -1.9100 -1.0308 -10.8280 4.5402 -1.6908 11.4318 1.6007 -0.5955 5.2741 0.0000 0.0000 0.0000 -87.6266 12.9871 -3.2689 5.8272 -9.9736 -0.5089 -0.0000 -0.0000 16.3376 20.5912 -7.7144 -2.8871 -7.1250 0.0000 -0.0000 -4.5318 21.7557 2.5371 0.0000 0.0000 0.0000 88.8257 -10.5761 32.1061 -37.6652 46.6242 -16.7218 0.0000 -0.0000 -15.0855 -26.0498 -39.0272 17.1083 7.1250 -0.0000 -0.0000 14.4212 -71.5767 -9.1823
9.6934 16.3434 6.7779 3.2097 -13.1583 5.9168 0.0000 0.0000 0.0000 -25.7803 -4.9094 -26.7123 3.1229 10.8913 31.9142 0.3487 -6.6361 -10.8058 0.0030 0.3522 0.9678 0.0000 0.0000 0.0000 15.3515 10.3467 -13.2804 -13.1030 -18.8190 69.4451 -0.1808 -1.7664 7.6103 -0.3158 3.6127 -9.9895 -4.5146 3.5896 0.3563 -1.9313 4.6631 -2.3107 0.3934 2.4005 -2.7789 -1.8415 -1.0523 -10.9323 4.2570 -1.7014 11.7010 1.5005 -0.6135 5.3728 0.0000 -0.0000 0.0000 -87.4277 11.7934 -0.7068 5.8606 -10.0294 -0.5147 -0.0000 -0.0000 16.4295 20.4183 -8.7534 -3.2424 -7.1250 0.0000 -0.0000 -4.6632 20.6637 2.7265 0.0000 -0.0000 0.0000 88.9243 -10.8588 31.5452 -35.2118 44.9628 -14.9628 0.0000 -0.0000 -15.2384 -25.9431 -36.9122 16.2878 7.1250 -0.0000 -0.0000 11.9497 -69.5146 -7.0474
9.6932 16.3449 6.9973 3.2598 -12.5533 6.2240 0.0000 0.0000 0.0000 -26.1051 -5.2038 -25.8788 3.0684 10.8049 31.6247 0.4009 -6.9581 -11.5580 0.0053 -0.4701 -1.2918 0.0000 0.0000 0.0000 15.4756 10.9707 -15.6289 -13.4269 -18.9309 70.4462 -0.0894 -0.0535 5.6268 -0.7218 5.4289 -15.1361 -4.4796 3.3661 0.3021 -1.9532 4.3630 -2.4539 0.3602 2.2531 -2.8793 -1.8215 -1.0847 -10.7962 4.1138 -1.7363 11.8816 1.4505 -0.6396 5.4056 0.0000 -0.0000 0.0000 -87.4141 10.6001 -0.0757 6.0906 -10.4132 -0.5555 -0.0000 -0.0000 18.4001 20.2092 -10.0058 -3.6595 -7.1250 0.0000 -0.0000 -4.8275 19.3522 2.9655 0.0000 -0.0000 0.0000 89.3021 -11.2427 30.7918 -32.8277 43.1972 -13.3040 0.0000 -0.0000 -15.3085 -26.4782 -36.4106 16.4709 7.1250 -0.0000 -0.0000 10.6921 -69.1943 -6.2226
9.6874 16.3520 7.2082 3.1950 -11.9069 6.3787 0.0000 0.0000 0.0000 -26.2520 -5.3069 -25.0725 3.0508 10.7768 31.5307 0.4427 -7.4593 -12.1786 0.0445 -1.3611 -3.7429 0.0000 0.0000 0.0000 15.6128 11.2860 -17.3803 -13.6442 -19.0025 71.1148 -0.0199 1.3895 3.5526 -0.4374 4.2437 -11.7632 -4.4613 3.1495 0.5249 -1.8600 4.0590 -2.5663 0.4383 2.1070 -3.1140 -1.9682 -1.1205 -10.8856 4.0670 -1.7666 12.2867 1.4583 -0.6599 5.5488 0.0000 -0.0000 0.0000 -87.4360 9.5530 2.1298 6.4332 -10.9827 -0.6191 -0.0000 -0.0000 18.7754 20.6226 -10.2753 -3.8404 -7.1250 0.0000 -0.0000 -4.5384 19.0363 2.8187 0.0000 -0.0000 0.0000 89.5371 -11.6855 29.8409 -30.5235 41.3379 -11.7539 0.0000 -0.0000 -15.2453 -26.6907 -36.1213 16.5081 7.1250 -0.0000 -0.0000 10.1105 -68.9765 -5.8321
9.6809 16.3803 7.4323 3.0687 -11.3780 6.3999 0.0000 0.0000 0.0000 -26.3399 -5.1749 -24.0665 3.0283 10.7408 31.4106 0.4668 -8.2439 -12.6357 0.0322 -1.1584 -3.1847 0.0000 0.0000 0.0000 15.8877 11.4013 -19.5730 -13.7079 -19.0230 71.3103 0.0147 2.3976 2.0082 -1.0751 6.5908 -18.5087 -4.4150 3.0092 0.7694 -1.7303 3.8604 -2.6047 0.5377 2.0117 -3.2888 -2.0925 -1.1804 -10.8783 4.0117 -1.8276 12.5412 1.4572 -0.6974 5.6296 -0.0000 -0.0000 0.0000 -87.3653 8.5041 5.0400 6.7308 -11.4754 -0.6771 -0.0000 -0.0000 18.2298 20.9408 -10.6273 -4.0369 -7.1250 0.0000 -0.0000 -4.3206 18.6381 2.7209 -0.0000 -0.0000 0.0000 89.5798 -12.2462 28.5848 -28.2148 39.3132 -10.2595 0.0000 -0.0000 -14.1746 -24.8969 -33.7526 14.4598 7.1250 -0.0000 -0.0000 10.2731 -66.0874 -5.2514
